<svg width="32" height="32" viewBox="0 0 32 32" fill="none" xmlns="http://www.w3.org/2000/svg">
<g clip-path="url(#clip0_157_31)">
<path d="M16 16C16 8.89102 26.667 8.89102 26.667 16C26.667 23.109 16 23.109 16 16ZM5.33303 26.667C5.33303 23.719 7.71803 21.334 10.666 21.334H15.999V26.667C15.999 33.776 5.33203 33.776 5.33203 26.667H5.33303ZM16 2.34375e-05V10.667H21.333C28.442 10.667 28.442 2.34375e-05 21.333 2.34375e-05H16ZM5.33303 5.33302C5.33303 8.28102 7.71803 10.666 10.666 10.666H15.999V-0.000976562H10.666C7.71803 -0.000976562 5.33303 2.38402 5.33303 5.33202V5.33302ZM5.33303 16C5.33303 18.948 7.71803 21.334 10.666 21.334H15.999V10.666H10.666C7.71803 10.666 5.33303 13.052 5.33303 16Z" fill="white"/>
</g>
<defs>
<clipPath id="clip0_157_31">
<rect width="32" height="32" fill="white"/>
</clipPath>
</defs>
</svg>
