<svg width="32" height="32" viewBox="0 0 32 32" fill="none" xmlns="http://www.w3.org/2000/svg">
<g clip-path="url(#clip0_157_53)">
<path d="M0 0V32H32V0H0ZM23.855 3.855C25.776 3.855 27.407 4.443 28.74 5.558L27.26 7.782C26.073 6.965 24.964 6.449 23.855 6.449C22.74 6.449 22.146 6.965 22.146 7.632V7.704C22.146 8.595 22.741 8.892 24.965 9.485C27.632 10.225 29.11 11.189 29.11 13.485V13.558C29.11 16.225 27.11 17.703 24.298 17.703C22.298 17.631 20.298 16.891 18.741 15.484L20.444 13.407C21.632 14.37 22.887 15.036 24.371 15.036C25.554 15.036 26.22 14.593 26.22 13.781V13.702C26.22 12.963 25.777 12.593 23.553 11.999C20.886 11.332 19.261 10.592 19.261 7.926V7.849C19.261 5.406 21.184 3.849 23.85 3.849L23.855 3.855ZM2.369 4.145H5.406L7.406 11.854L9.702 4.145H11.926L14.15 11.854L16.15 4.145H19.259L15.483 17.406H12.963L10.816 9.702L8.592 17.406H6.149L2.369 4.145ZM3.036 26H15.036V28H3.036V26Z" fill="white"/>
</g>
<defs>
<clipPath id="clip0_157_53">
<rect width="32" height="32" fill="white"/>
</clipPath>
</defs>
</svg>
