<svg width="32" height="32" viewBox="0 0 32 32" fill="none" xmlns="http://www.w3.org/2000/svg">
<g clip-path="url(#clip0_158_6)">
<path d="M28 0H4C1.792 0 0 1.792 0 4V28C0 30.208 1.792 32 4 32H28C30.208 32 32 30.208 32 28V4C32 1.792 30.208 0 28 0ZM13.922 24.24C13.922 25.303 13.063 26.162 12 26.162H6.078C5.021 26.162 4.161 25.297 4.161 24.24V6.079C4.161 5.022 5.02 4.162 6.078 4.162H12C13.063 4.162 13.922 5.021 13.922 6.079V24.24ZM27.839 16.24C27.839 17.297 26.98 18.162 25.922 18.162H20C18.937 18.162 18.078 17.297 18.078 16.24V6.079C18.078 5.022 18.943 4.162 20 4.162H25.922C26.979 4.162 27.839 5.021 27.839 6.079V16.24Z" fill="white"/>
</g>
<defs>
<clipPath id="clip0_158_6">
<rect width="32" height="32" fill="white"/>
</clipPath>
</defs>
</svg>
