<svg width="32" height="32" viewBox="0 0 32 32" fill="none" xmlns="http://www.w3.org/2000/svg">
<g clip-path="url(#clip0_157_33)">
<path d="M27.26 27.271H22.527V19.844C22.527 18.073 22.49 15.797 20.052 15.797C17.584 15.797 17.208 17.718 17.208 19.713V27.27H12.469V11.999H17.021V14.082H17.082C17.718 12.879 19.265 11.614 21.573 11.614C26.374 11.614 27.265 14.775 27.265 18.885V27.27L27.26 27.271ZM7.115 9.912C5.588 9.912 4.364 8.677 4.364 7.156C4.364 5.64 5.593 4.407 7.115 4.407C8.637 4.407 9.87 5.64 9.87 7.156C9.87 8.677 8.637 9.912 7.115 9.912ZM9.489 27.271H4.74V12H9.489V27.271ZM29.636 0H2.36C1.057 0 0 1.031 0 2.307V29.694C0 30.97 1.057 32.001 2.36 32.001H29.631C30.932 32.001 32 30.97 32 29.694V2.307C32 1.031 30.932 0 29.631 0L29.636 0Z" fill="white"/>
</g>
<defs>
<clipPath id="clip0_157_33">
<rect width="32" height="32" fill="white"/>
</clipPath>
</defs>
</svg>
