<svg width="32" height="32" viewBox="0 0 32 32" fill="none" xmlns="http://www.w3.org/2000/svg">
<g clip-path="url(#clip0_157_51)">
<path d="M29.312 21.7968C29.385 21.6448 29.385 21.4998 29.464 21.3488C31.255 14.3168 26.995 6.09277 19.667 1.75977C22.88 6.09277 24.151 11.2548 23.031 15.8908C22.959 16.2658 22.807 16.7138 22.656 17.0878C22.453 16.9728 22.251 16.8488 22.057 16.7128C22.057 16.7128 14.806 12.2288 7.03002 4.37377C6.80602 4.14977 11.218 10.6548 16.15 15.8168C13.833 14.4688 7.25402 9.75977 3.13902 5.94777C3.58702 6.76477 4.26402 7.58777 4.93602 8.41177C8.37302 12.8228 12.863 18.2078 18.244 22.3168C14.431 24.6398 9.12402 24.7858 3.73902 22.3168C2.39502 21.7238 1.27002 20.9728 -0.000976562 20.0778C2.24402 23.5928 5.75902 26.8058 9.94702 28.5258C14.958 30.6968 20.04 30.5458 23.702 28.5258H23.781C23.926 28.4528 24.078 28.3738 24.229 28.2288C26.021 27.3278 29.536 26.3598 31.478 30.0978C32.005 31.1448 32.974 26.2858 29.312 21.7968Z" fill="white"/>
</g>
<defs>
<clipPath id="clip0_157_51">
<rect width="32" height="32" fill="white"/>
</clipPath>
</defs>
</svg>
