<svg width="32" height="32" viewBox="0 0 32 32" fill="none" xmlns="http://www.w3.org/2000/svg">
<g clip-path="url(#clip0_157_45)">
<path d="M15.0919 22.1458C15.0619 22.1998 15.0769 22.1758 15.0919 22.1458V22.1458ZM27.5479 17.7958C26.5419 17.7958 25.5499 18.0258 24.6479 18.4708C24.3529 17.8758 24.0479 17.3558 23.9979 16.9658C23.9379 16.5108 23.8729 16.2408 23.9429 15.7008C24.0129 15.1608 24.3279 14.3958 24.3229 14.3408C24.3179 14.2858 24.2529 14.0108 23.6079 14.0058C22.9629 14.0008 22.4079 14.1308 22.3429 14.3008C22.2289 14.6118 22.1399 14.9308 22.0779 15.2558C21.9629 15.8408 20.7889 17.9308 20.1239 19.0208C19.9039 18.5958 19.7189 18.2208 19.6789 17.9208C19.6189 17.4658 19.5539 17.1958 19.6239 16.6558C19.6939 16.1158 20.0089 15.3508 20.0039 15.2958C19.9989 15.2408 19.9339 14.9658 19.2899 14.9608C18.6459 14.9558 18.0899 15.0858 18.0249 15.2558C17.9599 15.4258 17.8899 15.8258 17.7599 16.2108C17.6299 16.5958 16.0649 20.0758 15.6559 20.9808C15.4459 21.4408 15.2659 21.8108 15.1359 22.0608C15.1159 22.1008 15.1009 22.1258 15.0909 22.1458C15.1059 22.1208 15.1159 22.0958 15.1159 22.1058C15.0059 22.3208 14.9409 22.4408 14.9409 22.4408V22.4458C14.8559 22.6058 14.7609 22.7508 14.7159 22.7508C14.6859 22.7508 14.6209 22.3308 14.7309 21.7558C14.9659 20.5458 15.5209 18.6658 15.5159 18.6008C15.5109 18.5658 15.6209 18.2408 15.1509 18.0658C14.6959 17.9008 14.5309 18.1758 14.4909 18.1758C14.4509 18.1758 14.4209 18.2758 14.4209 18.2758C14.4209 18.2758 14.9259 16.1558 13.4509 16.1558C12.5309 16.1558 11.2509 17.1658 10.6219 18.0808C10.2269 18.2958 9.37185 18.7608 8.47185 19.2558C8.12685 19.4458 7.77185 19.6408 7.43685 19.8258C7.41185 19.8008 7.39185 19.7758 7.36685 19.7508C5.57685 17.8408 2.27285 16.4908 2.41285 13.9258C2.46285 12.9908 2.78785 10.5358 8.76685 7.55579C13.6669 5.11579 17.5839 5.78579 18.2589 7.27579C19.2289 9.40079 16.1639 13.3558 11.0759 13.9258C9.13585 14.1408 8.11685 13.3908 7.86185 13.1108C7.59685 12.8158 7.55685 12.8008 7.45685 12.8558C7.29185 12.9458 7.39685 13.2058 7.45685 13.3608C7.60685 13.7558 8.23185 14.4558 9.29685 14.8058C10.2319 15.1108 12.5059 15.2808 15.2549 14.2158C18.3439 13.0258 20.7489 9.71079 20.0429 6.93579C19.3249 4.11579 14.6489 3.19079 10.2279 4.76079C7.59285 5.69579 4.74385 7.16579 2.69485 9.08079C0.259854 11.3608 -0.129146 13.3458 0.0308539 14.1758C0.600854 17.1208 4.65985 19.0408 6.28385 20.4608C6.20385 20.5058 6.12885 20.5458 6.05885 20.5858C5.24385 20.9908 2.14985 22.6108 1.37485 24.3208C0.499854 26.2608 1.51985 27.6508 2.18885 27.8408C4.27885 28.4208 6.41785 27.3758 7.56785 25.6608C8.71785 23.9458 8.57785 21.7058 8.04785 20.6858C8.04285 20.6708 8.03285 20.6608 8.02785 20.6458C8.23785 20.5208 8.45285 20.3958 8.66785 20.2708C9.08285 20.0258 9.48785 19.8008 9.84285 19.6058C9.64285 20.1458 9.49785 20.7958 9.42285 21.7358C9.33285 22.8358 9.78785 24.2608 10.3779 24.8208C10.6379 25.0658 10.9519 25.0708 11.1479 25.0708C11.8379 25.0708 12.1479 24.5008 12.4929 23.8208C12.9179 22.9908 13.2929 22.0258 13.2929 22.0258C13.2929 22.0258 12.8229 24.6358 14.1079 24.6358C14.5779 24.6358 15.0479 24.0308 15.2579 23.7208V23.7258C15.2579 23.7258 15.2679 23.7058 15.2929 23.6658C15.3429 23.5908 15.3679 23.5458 15.3679 23.5458V23.5308C15.5579 23.2058 15.9729 22.4608 16.5979 21.2308C17.4079 19.6408 18.1819 17.6558 18.1819 17.6558C18.2569 18.0918 18.3609 18.5228 18.4919 18.9458C18.6319 19.4208 18.9269 19.9408 19.1619 20.4458C18.9719 20.7058 18.8569 20.8558 18.8569 20.8558C18.8569 20.8598 18.8589 20.8628 18.8619 20.8658C18.7119 21.0658 18.5419 21.2808 18.3669 21.4908C17.7279 22.2508 16.9669 23.1208 16.8669 23.3708C16.7469 23.6658 16.7769 23.8858 17.0069 24.0558C17.1769 24.1858 17.4769 24.2058 17.7919 24.1808C18.3669 24.1408 18.7719 24.0008 18.9669 23.9108C19.3269 23.7818 19.6659 23.6038 19.9769 23.3808C20.6019 22.9208 20.9819 22.2608 20.9469 21.3908C20.9269 20.9108 20.7719 20.4308 20.5819 19.9808C20.6369 19.9008 20.6969 19.8158 20.7519 19.7308C21.7409 18.2858 22.5069 16.6998 22.5069 16.6998C22.5819 17.1358 22.6849 17.5668 22.8169 17.9898C22.9369 18.3948 23.1719 18.8398 23.3869 19.2748C22.4569 20.0298 21.8819 20.9048 21.6829 21.4798C21.3129 22.5448 21.6029 23.0248 22.1479 23.1348C22.3929 23.1848 22.7429 23.0698 23.0029 22.9598C23.3889 22.8308 23.7529 22.6438 24.0819 22.4048C24.7069 21.9448 25.3119 21.2998 25.2709 20.4248C25.2559 20.0298 25.1459 19.6348 25.0009 19.2548C25.7859 18.9248 26.8059 18.7448 28.1059 18.8948C30.8899 19.2198 31.4349 20.9598 31.3299 21.6848C31.2249 22.4098 30.6399 22.8148 30.4449 22.9348C30.2499 23.0548 30.1899 23.0998 30.2049 23.1898C30.2299 23.3198 30.3199 23.3148 30.4849 23.2848C30.7149 23.2448 31.9449 22.6948 31.9999 21.3498C32.0799 19.6498 30.4449 17.7798 27.5499 17.7948L27.5479 17.7958ZM6.08885 25.0308C5.16885 26.0358 3.87985 26.4158 3.32485 26.0958C2.72985 25.7498 2.96485 24.2708 4.09885 23.1998C4.78885 22.5498 5.67885 21.9498 6.26885 21.5798C6.40385 21.4998 6.59885 21.3798 6.83885 21.2348C6.87885 21.2098 6.89885 21.1998 6.89885 21.1998C6.94385 21.1698 6.99385 21.1448 7.04385 21.1148C7.45785 22.6348 7.05885 23.9758 6.08885 25.0308ZM12.8069 20.4608C12.4869 21.2458 11.8129 23.2458 11.4019 23.1408C11.0519 23.0508 10.8369 21.5258 11.3319 20.0258C11.5819 19.2708 12.1119 18.3708 12.4269 18.0208C12.9319 17.4558 13.4869 17.2758 13.6169 17.5008C13.7919 17.7958 13.0069 19.9708 12.8069 20.4608ZM18.3569 23.1108C18.2219 23.1808 18.0969 23.2258 18.0369 23.1908C17.9919 23.1658 18.0919 23.0708 18.0919 23.0708C18.0919 23.0708 18.7869 22.3258 19.0619 21.9858C19.2219 21.7858 19.4069 21.5508 19.6069 21.2908C19.6069 21.3158 19.6119 21.3408 19.6119 21.3708C19.6059 22.2658 18.7469 22.8708 18.3569 23.1108ZM22.6369 22.1358C22.5369 22.0658 22.5519 21.8308 22.8869 21.1008C23.0169 20.8158 23.3169 20.3358 23.8369 19.8758C23.8959 20.0498 23.9279 20.2318 23.9319 20.4158C23.9269 21.5408 23.1219 21.9608 22.6369 22.1358Z" fill="white"/>
</g>
<defs>
<clipPath id="clip0_157_45">
<rect width="32" height="32" fill="white"/>
</clipPath>
</defs>
</svg>
