<svg width="219" height="219" viewBox="0 0 219 219" fill="none" xmlns="http://www.w3.org/2000/svg">
<path d="M109.5 196.918C94.1882 196.893 79.5104 190.8 68.6833 179.973C57.8562 169.146 51.7629 154.468 51.7388 139.156V79.8438C51.7388 72.2585 53.2328 64.7474 56.1356 57.7395C59.0384 50.7316 63.293 44.364 68.6566 39.0004C74.0203 33.6368 80.3878 29.3821 87.3957 26.4793C94.4037 23.5766 101.915 22.0825 109.5 22.0825C117.085 22.0825 124.596 23.5766 131.604 26.4793C138.612 29.3821 144.98 33.6368 150.343 39.0004C155.707 44.364 159.962 50.7316 162.864 57.7395C165.767 64.7474 167.261 72.2585 167.261 79.8438V139.156C167.237 154.468 161.144 169.146 150.317 179.973C139.49 190.8 124.812 196.893 109.5 196.918ZM109.5 31.2075C96.6009 31.2075 84.2301 36.3317 75.109 45.4527C65.9879 54.5738 60.8638 66.9446 60.8638 79.8438V139.156C60.8638 152.055 65.9879 164.426 75.109 173.547C84.2301 182.668 96.6009 187.793 109.5 187.793C122.399 187.793 134.77 182.668 143.891 173.547C153.012 164.426 158.136 152.055 158.136 139.156V79.8438C158.136 66.9446 153.012 54.5738 143.891 45.4527C134.77 36.3317 122.399 31.2075 109.5 31.2075Z" fill="#EAEAEA"/>
<path d="M109.5 103.204C108.29 103.204 107.129 102.723 106.274 101.867C105.418 101.012 104.938 99.8512 104.938 98.6411V73.5474C104.937 72.3373 105.418 71.1768 106.274 70.3212C107.129 69.4656 108.29 68.9849 109.5 68.9849C110.71 68.9849 111.871 69.4656 112.726 70.3212C113.582 71.1768 114.062 72.3373 114.062 73.5474V98.6411C114.062 99.8512 113.582 101.012 112.726 101.867C111.871 102.723 110.71 103.204 109.5 103.204Z" fill="#EAEAEA"/>
</svg>
