<svg width="32" height="32" viewBox="0 0 32 32" fill="none" xmlns="http://www.w3.org/2000/svg">
<g clip-path="url(#clip0_158_4)">
<path d="M6.724 20.219C6.719 22.074 5.219 23.579 3.364 23.584C1.505 23.579 0.005 22.079 0 20.219C0.005 18.364 1.511 16.864 3.364 16.86H6.724V20.219ZM8.416 20.219C8.421 18.364 9.927 16.864 11.781 16.86C13.63 16.864 15.136 18.364 15.14 20.219V28.636C15.136 30.489 13.636 31.995 11.781 32C9.921 31.995 8.421 30.489 8.416 28.636V20.219ZM11.781 6.724C9.926 6.719 8.421 5.219 8.416 3.364C8.421 1.511 9.921 0.005 11.781 0C13.636 0.005 15.136 1.511 15.14 3.364V6.724H11.781ZM11.781 8.416C13.636 8.421 15.136 9.921 15.14 11.781C15.136 13.636 13.636 15.136 11.781 15.14H3.364C1.511 15.136 0.005 13.636 0 11.781C0.005 9.921 1.511 8.421 3.364 8.416H11.781ZM25.276 11.781C25.281 9.921 26.781 8.421 28.636 8.416C30.489 8.421 31.995 9.921 32 11.781C31.995 13.636 30.489 15.136 28.636 15.14H25.276V11.781ZM23.584 11.781C23.579 13.636 22.073 15.136 20.219 15.14C18.364 15.136 16.864 13.631 16.86 11.781V3.364C16.864 1.511 18.364 0.005 20.219 0C22.079 0.005 23.579 1.505 23.584 3.364V11.781ZM20.219 25.276C22.079 25.276 23.579 26.781 23.584 28.636C23.579 30.495 22.079 31.995 20.219 32C18.364 31.995 16.864 30.489 16.86 28.636V25.276H20.219ZM20.219 23.584C18.364 23.579 16.864 22.073 16.86 20.219C16.864 18.364 18.364 16.864 20.219 16.86H28.636C30.489 16.864 31.995 18.364 32 20.219C31.995 22.079 30.495 23.579 28.636 23.584H20.219Z" fill="white"/>
</g>
<defs>
<clipPath id="clip0_158_4">
<rect width="32" height="32" fill="white"/>
</clipPath>
</defs>
</svg>
