<svg width="32" height="32" viewBox="0 0 32 32" fill="none" xmlns="http://www.w3.org/2000/svg">
<g clip-path="url(#clip0_157_41)">
<path d="M30.8649 3.448L24.2819 0.281001C23.5159 -0.0889988 22.6049 0.0670012 22.0059 0.666001L9.39685 12.171L3.90185 8.004C3.39185 7.613 2.67285 7.645 2.19885 8.077L0.438854 9.681C-0.144146 10.207 -0.144146 11.124 0.433854 11.65L5.19985 15.999L0.433854 20.348C-0.144146 20.874 -0.144146 21.791 0.438854 22.317L2.19885 23.921C2.67785 24.353 3.39185 24.385 3.90185 23.994L9.39685 19.822L22.0119 31.332C22.6059 31.931 23.5169 32.087 24.2829 31.717L30.8719 28.545C31.5649 28.212 32.0019 27.514 32.0019 26.743V5.248C32.0019 4.482 31.5589 3.779 30.8669 3.446L30.8649 3.448ZM24.0049 23.266L14.4319 16L24.0049 8.734V23.266Z" fill="white"/>
</g>
<defs>
<clipPath id="clip0_157_41">
<rect width="32" height="32" fill="white"/>
</clipPath>
</defs>
</svg>
