<svg width="32" height="32" viewBox="0 0 32 32" fill="none" xmlns="http://www.w3.org/2000/svg">
<g clip-path="url(#clip0_158_2)">
<path d="M5.9479 5.60914C6.9379 6.41614 7.3129 6.35914 9.1819 6.23414L26.8019 5.17714C27.1769 5.17714 26.8649 4.80214 26.7389 4.73914L23.8119 2.62414C23.2549 2.18614 22.5049 1.69214 21.0719 1.81114L4.0149 3.06114C3.3899 3.11814 3.2649 3.43114 3.5149 3.68114L5.9479 5.60914ZM7.0049 9.71914V28.2551C7.0049 29.2501 7.4999 29.6251 8.6199 29.5621L27.9849 28.4421C29.1049 28.3791 29.2349 27.6971 29.2349 26.8851V8.47414C29.2349 7.66114 28.9219 7.22914 28.2349 7.29214L8.0009 8.47414C7.2509 8.53714 7.0059 8.90614 7.0059 9.71414L7.0049 9.71914ZM26.1199 10.7081C26.2449 11.2711 26.1199 11.8281 25.5569 11.8961L24.6249 12.0841V25.7661C23.8119 26.2041 23.0679 26.4541 22.4479 26.4541C21.4479 26.4541 21.1979 26.1411 20.4529 25.2091L14.3489 15.6261V24.8971L16.2809 25.3351C16.2809 25.3351 16.2809 26.4551 14.7239 26.4551L10.4269 26.7051C10.3019 26.4551 10.4269 25.8301 10.8649 25.7101L11.9849 25.3971V13.1421L10.4279 13.0171C10.3029 12.4541 10.6159 11.6471 11.4849 11.5851L16.0939 11.2721L22.4479 20.9801V12.3911L20.8279 12.2031C20.7029 11.5211 21.1979 11.0211 21.8229 10.9631L26.1199 10.7081ZM2.5829 1.38014L20.3279 0.0731393C22.5049 -0.114861 23.0679 0.0101393 24.4369 1.00514L30.1039 4.98914C31.0359 5.67114 31.3489 5.85914 31.3489 6.60414V28.4431C31.3489 29.8131 30.8489 30.6201 29.1089 30.7451L8.4939 31.9901C7.1919 32.0531 6.5669 31.8651 5.8789 30.9951L1.7069 25.5781C0.961902 24.5831 0.649902 23.8381 0.649902 22.9691V3.55814C0.649902 2.43814 1.1499 1.50614 2.5819 1.38114L2.5829 1.38014Z" fill="white"/>
</g>
<defs>
<clipPath id="clip0_158_2">
<rect width="32" height="32" fill="white"/>
</clipPath>
</defs>
</svg>
