<svg width="32" height="32" viewBox="0 0 32 32" fill="none" xmlns="http://www.w3.org/2000/svg">
<g clip-path="url(#clip0_157_47)">
<path d="M0 0V32H32V0H0ZM26.583 7.583L24.869 9.229C24.718 9.338 24.645 9.526 24.676 9.708V21.797C24.645 21.985 24.718 22.167 24.869 22.281L26.541 23.927V24.286H18.114V23.927L19.848 22.239C20.02 22.067 20.02 22.02 20.02 21.76V11.984L15.192 24.244H14.541L8.921 11.984V20.203C8.874 20.547 8.989 20.896 9.228 21.146L11.488 23.886V24.245H5.087V23.886L7.347 21.146C7.587 20.896 7.696 20.547 7.633 20.203V10.703C7.664 10.437 7.56 10.177 7.362 10L5.357 7.583V7.218H11.586L16.404 17.786L20.638 7.218H26.581L26.583 7.583Z" fill="white"/>
</g>
<defs>
<clipPath id="clip0_157_47">
<rect width="32" height="32" fill="white"/>
</clipPath>
</defs>
</svg>
