<svg width="20" height="26" viewBox="0 0 20 26" fill="none" xmlns="http://www.w3.org/2000/svg">
<path d="M9.92383 0C9.20183 0 5.44783 0.126328 2.42383 2.61133C2.38283 2.64433 2.34445 2.68452 2.31445 2.72852C1.59745 3.77952 1.2752 6.1535 1.0332 8.5625C1.0302 8.5905 1.02739 8.61853 1.02539 8.64453C0.694391 8.78453 0.412109 9.11478 0.412109 9.55078L0.582031 14.4941C0.582031 14.8921 0.885797 15.3296 1.3418 15.4316C1.6088 16.6266 2.48044 20.4521 2.89844 21.2891C3.43044 22.3531 5.07148 24.6929 6.64648 25.5469C7.50948 25.9789 9.49772 26 9.88672 26C10.3547 26 12.7269 25.977 13.4199 25.541C14.9439 24.746 16.6333 22.3407 17.1523 21.3027C17.5763 20.5077 18.259 16.8151 18.502 15.4531C18.944 15.4291 19.418 15.0436 19.418 14.5156L19.5879 9.5332C19.5879 9.1802 19.3495 8.79558 18.9785 8.64258C18.9725 8.57458 18.966 8.50278 18.959 8.42578C18.824 6.83578 18.5711 3.87417 17.6641 2.70117C17.6381 2.66717 17.6082 2.63833 17.5762 2.61133C14.5522 0.126328 10.7962 0 10.0742 0L10.0156 0.00195312L9.92383 0ZM13.2363 3.16406C13.2363 3.16406 14.2603 3.35755 14.9863 3.93555C15.5053 4.46155 16.1289 5.24805 16.1289 5.24805L15.9727 11.5703L16.6465 13.6191C16.5515 13.9011 16.3879 14.9347 16.1289 15.3027C15.8699 15.6697 14.209 18.875 14.209 18.875C14.209 18.875 13.6199 20.1663 13.8789 21.3223C14.0559 22.1483 13.9492 22.7383 13.9492 22.7383L13.4844 23.2656C13.3794 23.3706 13.2231 23.4219 13.1191 23.4219C13.0681 23.4219 13.0158 23.3691 12.9648 23.3691L12.0312 22.9473H8.29688L7.36328 23.3672C7.31128 23.4202 7.25803 23.4219 7.20703 23.4219C7.05103 23.4219 6.94875 23.3677 6.84375 23.2637L6.37695 22.7383C6.37695 22.7383 6.24366 22.0321 6.34766 21.2441C6.60666 20.0881 6.11719 18.875 6.11719 18.875C6.11719 18.875 4.19945 15.6697 3.93945 15.3027C3.68045 14.9867 3.30469 13.748 3.30469 13.748L4.19531 11.5625L4.04102 5.24805C4.04102 5.24805 4.55937 4.46055 5.23438 3.93555C5.85738 3.46255 7.00586 3.33203 7.00586 3.33203L7.63867 7.97266C7.63867 7.97266 7.77539 8.75338 7.77539 8.85938C7.77539 8.96437 8.41797 9.28711 8.41797 9.28711L11.793 9.2832C11.793 9.2832 12.4375 8.96242 12.4375 8.85742C12.4375 8.80542 12.5703 7.9707 12.5703 7.9707L13.2363 3.16406ZM15.4727 12.9805C15.4383 12.9858 15.3997 12.9991 15.3574 13.0273C14.7934 13.1963 13.2157 13.93 11.6367 14.043C11.2417 14.213 11.5234 14.3828 11.5234 14.3828C11.5234 14.3828 11.8616 14.946 11.9746 15.002C12.0876 15.172 12.3125 15.1719 12.3125 15.1719L14.1172 15.0586C14.1172 15.0586 14.4566 15.0596 14.6816 14.8906C14.9636 14.7776 15.922 14.155 16.373 13.873C16.542 13.761 16.373 13.5918 16.373 13.5918L15.6406 13.0273C15.6406 13.0273 15.5757 12.9646 15.4727 12.9805ZM4.46875 13.0371C4.36567 13.0212 4.30273 13.0859 4.30273 13.0859L3.57031 13.6484C3.57031 13.6484 3.40131 13.8186 3.57031 13.9316C4.02131 14.2136 4.97972 14.8323 5.26172 14.9453C5.48772 15.1143 5.82617 15.1152 5.82617 15.1152L7.63086 15.2285C7.63086 15.2285 7.91239 15.228 8.02539 15.002C8.13839 14.946 8.47656 14.3828 8.47656 14.3828C8.47656 14.3828 8.75864 14.2126 8.30664 14.0996C6.72764 13.9866 5.14994 13.2549 4.58594 13.0859C4.54369 13.0577 4.50311 13.0424 4.46875 13.0371Z" fill="#6A0C0B"/>
</svg>
