<svg width="154" height="208" viewBox="0 0 154 208" fill="none" xmlns="http://www.w3.org/2000/svg">
<path d="M76.3906 0C70.6146 0 40.5826 1.01063 16.3906 20.8906C16.0626 21.1546 15.7556 21.4761 15.5156 21.8281C9.77962 30.2361 7.20162 49.228 5.26562 68.5C5.24162 68.724 5.21913 68.9482 5.20312 69.1562C2.55512 70.2763 0.296875 72.9183 0.296875 76.4062L1.65625 115.953C1.65625 119.137 4.08637 122.637 7.73438 123.453C9.87037 133.013 16.8435 163.617 20.1875 170.312C24.4435 178.825 37.5719 197.543 50.1719 204.375C57.0759 207.831 72.9818 208 76.0938 208C79.8377 208 98.8154 207.816 104.359 204.328C116.551 197.968 130.067 178.726 134.219 170.422C137.611 164.062 143.072 134.521 145.016 123.625C148.552 123.433 152.344 120.349 152.344 116.125L153.703 76.2656C153.703 73.4416 151.796 70.3646 148.828 69.1406C148.78 68.5966 148.728 68.0222 148.672 67.4062C147.592 54.6863 145.569 30.9934 138.312 21.6094C138.105 21.3374 137.865 21.1066 137.609 20.8906C113.417 1.01063 83.3698 0 77.5938 0L77.125 0.015625L76.3906 0ZM102.891 25.3125C102.891 25.3125 111.083 26.8604 116.891 31.4844C121.043 35.6924 126.031 41.9844 126.031 41.9844L124.781 92.5625L130.172 108.953C129.412 111.209 128.103 119.478 126.031 122.422C123.959 125.358 110.672 151 110.672 151C110.672 151 105.959 161.33 108.031 170.578C109.447 177.186 108.594 181.906 108.594 181.906L104.875 186.125C104.035 186.965 102.785 187.375 101.953 187.375C101.545 187.375 101.127 186.953 100.719 186.953L93.25 183.578H63.375L55.9062 186.938C55.4902 187.361 55.0642 187.375 54.6562 187.375C53.4082 187.375 52.59 186.941 51.75 186.109L48.0156 181.906C48.0156 181.906 46.9492 176.257 47.7812 169.953C49.8533 160.705 45.9375 151 45.9375 151C45.9375 151 30.5956 125.358 28.5156 122.422C26.4436 119.894 23.4375 109.984 23.4375 109.984L30.5625 92.5L29.3281 41.9844C29.3281 41.9844 33.475 35.6844 38.875 31.4844C43.859 27.7004 53.0469 26.6562 53.0469 26.6562L58.1094 63.7812C58.1094 63.7812 59.2031 70.027 59.2031 70.875C59.2031 71.715 64.3438 74.2969 64.3438 74.2969L91.3438 74.2656C91.3438 74.2656 96.5 71.6994 96.5 70.8594C96.5 70.4434 97.5625 63.7656 97.5625 63.7656L102.891 25.3125ZM120.781 103.844C120.506 103.886 120.197 103.993 119.859 104.219C115.347 105.571 102.726 111.44 90.0938 112.344C86.9337 113.704 89.1875 115.062 89.1875 115.062C89.1875 115.062 91.8929 119.568 92.7969 120.016C93.7009 121.376 95.5 121.375 95.5 121.375L109.938 120.469C109.938 120.469 112.653 120.477 114.453 119.125C116.709 118.221 124.376 113.24 127.984 110.984C129.336 110.088 127.984 108.734 127.984 108.734L122.125 104.219C122.125 104.219 121.606 103.717 120.781 103.844ZM32.75 104.297C31.9254 104.17 31.4219 104.688 31.4219 104.688L25.5625 109.188C25.5625 109.188 24.2105 110.549 25.5625 111.453C29.1705 113.709 36.8377 118.659 39.0938 119.562C40.9017 120.914 43.6094 120.922 43.6094 120.922L58.0469 121.828C58.0469 121.828 60.2991 121.824 61.2031 120.016C62.1071 119.568 64.8125 115.062 64.8125 115.062C64.8125 115.062 67.0691 113.701 63.4531 112.797C50.8211 111.893 38.1995 106.04 33.6875 104.688C33.3495 104.462 33.0249 104.339 32.75 104.297Z" fill="#6A0C0B"/>
</svg>
