<svg width="78" height="104" viewBox="0 0 78 104" fill="none" xmlns="http://www.w3.org/2000/svg">
<path d="M38.6953 0C35.8073 0 20.7913 0.505313 8.69531 10.4453C8.53131 10.5773 8.37781 10.7381 8.25781 10.9141C5.38981 15.1181 4.10081 24.614 3.13281 34.25C3.12081 34.362 3.10956 34.4741 3.10156 34.5781C1.77756 35.1381 0.648438 36.4591 0.648438 38.2031L1.32812 57.9766C1.32812 59.5686 2.54319 61.3186 4.36719 61.7266C5.43519 66.5066 8.92175 81.8083 10.5938 85.1562C12.7218 89.4123 19.2859 98.7715 25.5859 102.188C29.0379 103.916 36.9909 104 38.5469 104C40.4189 104 49.9077 103.908 52.6797 102.164C58.7757 98.9841 65.5334 89.3629 67.6094 85.2109C69.3054 82.0309 72.0358 67.2605 73.0078 61.8125C74.7758 61.7165 76.6719 60.1745 76.6719 58.0625L77.3516 38.1328C77.3516 36.7208 76.3981 35.1823 74.9141 34.5703C74.8901 34.2983 74.8639 34.0111 74.8359 33.7031C74.2959 27.3431 73.2843 15.4967 69.6562 10.8047C69.5523 10.6687 69.4327 10.5533 69.3047 10.4453C57.2087 0.505313 42.1849 0 39.2969 0L39.0625 0.0078125L38.6953 0ZM51.9453 12.6562C51.9453 12.6562 56.0413 13.4302 58.9453 15.7422C61.0213 17.8462 63.5156 20.9922 63.5156 20.9922L62.8906 46.2812L65.5859 54.4766C65.2059 55.6046 64.5516 59.7389 63.5156 61.2109C62.4796 62.6789 55.8359 75.5 55.8359 75.5C55.8359 75.5 53.4796 80.6651 54.5156 85.2891C55.2236 88.5931 54.7969 90.9531 54.7969 90.9531L52.9375 93.0625C52.5175 93.4825 51.8926 93.6875 51.4766 93.6875C51.2726 93.6875 51.0634 93.4766 50.8594 93.4766L47.125 91.7891H32.1875L28.4531 93.4688C28.2451 93.6807 28.0321 93.6875 27.8281 93.6875C27.2041 93.6875 26.795 93.4707 26.375 93.0547L24.5078 90.9531C24.5078 90.9531 23.9746 88.1286 24.3906 84.9766C25.4266 80.3526 23.4688 75.5 23.4688 75.5C23.4688 75.5 15.7978 62.6789 14.7578 61.2109C13.7218 59.9469 12.2188 54.9922 12.2188 54.9922L15.7812 46.25L15.1641 20.9922C15.1641 20.9922 17.2375 17.8422 19.9375 15.7422C22.4295 13.8502 27.0234 13.3281 27.0234 13.3281L29.5547 31.8906C29.5547 31.8906 30.1016 35.0135 30.1016 35.4375C30.1016 35.8575 32.6719 37.1484 32.6719 37.1484L46.1719 37.1328C46.1719 37.1328 48.75 35.8497 48.75 35.4297C48.75 35.2217 49.2812 31.8828 49.2812 31.8828L51.9453 12.6562ZM60.8906 51.9219C60.7532 51.9431 60.5987 51.9964 60.4297 52.1094C58.1737 52.7854 51.8629 55.7199 45.5469 56.1719C43.9669 56.8519 45.0938 57.5312 45.0938 57.5312C45.0938 57.5312 46.4464 59.7838 46.8984 60.0078C47.3504 60.6878 48.25 60.6875 48.25 60.6875L55.4688 60.2344C55.4688 60.2344 56.8266 60.2385 57.7266 59.5625C58.8546 59.1105 62.6882 56.6202 64.4922 55.4922C65.1682 55.0442 64.4922 54.3672 64.4922 54.3672L61.5625 52.1094C61.5625 52.1094 61.3029 51.8583 60.8906 51.9219ZM16.875 52.1484C16.4627 52.0849 16.2109 52.3438 16.2109 52.3438L13.2812 54.5938C13.2812 54.5938 12.6053 55.2746 13.2812 55.7266C15.0853 56.8546 18.9189 59.3293 20.0469 59.7812C20.9509 60.4572 22.3047 60.4609 22.3047 60.4609L29.5234 60.9141C29.5234 60.9141 30.6496 60.9118 31.1016 60.0078C31.5536 59.7838 32.9062 57.5312 32.9062 57.5312C32.9062 57.5312 34.0346 56.8504 32.2266 56.3984C25.9106 55.9464 19.5998 53.0198 17.3438 52.3438C17.1748 52.2308 17.0124 52.1696 16.875 52.1484Z" fill="#6A0C0B"/>
</svg>
