<svg width="40" height="52" viewBox="0 0 40 52" fill="none" xmlns="http://www.w3.org/2000/svg">
<path d="M19.8477 0C18.4037 0 10.8957 0.252656 4.84766 5.22266C4.76566 5.28866 4.68891 5.36903 4.62891 5.45703C3.19491 7.55903 2.55041 12.307 2.06641 17.125C2.06041 17.181 2.05478 17.2371 2.05078 17.2891C1.38878 17.5691 0.824219 18.2296 0.824219 19.1016L1.16406 28.9883C1.16406 29.7843 1.77159 30.6593 2.68359 30.8633C3.21759 33.2533 4.96087 40.9041 5.79688 42.5781C6.86088 44.7061 10.143 49.3858 13.293 51.0938C15.019 51.9578 18.9954 52 19.7734 52C20.7094 52 25.4538 51.954 26.8398 51.082C29.8878 49.492 33.2667 44.6815 34.3047 42.6055C35.1527 41.0155 36.5179 33.6302 37.0039 30.9062C37.8879 30.8582 38.8359 30.0872 38.8359 29.0312L39.1758 19.0664C39.1758 18.3604 38.699 17.5912 37.957 17.2852C37.945 17.1492 37.932 17.0056 37.918 16.8516C37.648 13.6716 37.1421 7.74834 35.3281 5.40234C35.2761 5.33434 35.2163 5.27666 35.1523 5.22266C29.1043 0.252656 21.5924 0 20.1484 0L20.0312 0.00390625L19.8477 0ZM26.4727 6.32812C26.4727 6.32812 28.5207 6.71509 29.9727 7.87109C31.0107 8.92309 32.2578 10.4961 32.2578 10.4961L31.9453 23.1406L33.293 27.2383C33.103 27.8023 32.7758 29.8695 32.2578 30.6055C31.7398 31.3395 28.418 37.75 28.418 37.75C28.418 37.75 27.2398 40.3325 27.7578 42.6445C28.1118 44.2965 27.8984 45.4766 27.8984 45.4766L26.9688 46.5312C26.7588 46.7412 26.4463 46.8438 26.2383 46.8438C26.1363 46.8438 26.0317 46.7383 25.9297 46.7383L24.0625 45.8945H16.5938L14.7266 46.7344C14.6226 46.8404 14.5161 46.8438 14.4141 46.8438C14.1021 46.8438 13.8975 46.7353 13.6875 46.5273L12.7539 45.4766C12.7539 45.4766 12.4873 44.0643 12.6953 42.4883C13.2133 40.1763 12.2344 37.75 12.2344 37.75C12.2344 37.75 8.39891 31.3395 7.87891 30.6055C7.36091 29.9735 6.60938 27.4961 6.60938 27.4961L8.39062 23.125L8.08203 10.4961C8.08203 10.4961 9.11875 8.92109 10.4688 7.87109C11.7148 6.92509 14.0117 6.66406 14.0117 6.66406L15.2773 15.9453C15.2773 15.9453 15.5508 17.5068 15.5508 17.7188C15.5508 17.9287 16.8359 18.5742 16.8359 18.5742L23.5859 18.5664C23.5859 18.5664 24.875 17.9248 24.875 17.7148C24.875 17.6108 25.1406 15.9414 25.1406 15.9414L26.4727 6.32812ZM30.9453 25.9609C30.8766 25.9715 30.7993 25.9982 30.7148 26.0547C29.5868 26.3927 26.4314 27.8599 23.2734 28.0859C22.4834 28.4259 23.0469 28.7656 23.0469 28.7656C23.0469 28.7656 23.7232 29.8919 23.9492 30.0039C24.1752 30.3439 24.625 30.3438 24.625 30.3438L28.2344 30.1172C28.2344 30.1172 28.9133 30.1192 29.3633 29.7812C29.9273 29.5553 31.8441 28.3101 32.7461 27.7461C33.0841 27.5221 32.7461 27.1836 32.7461 27.1836L31.2812 26.0547C31.2812 26.0547 31.1515 25.9292 30.9453 25.9609ZM8.9375 26.0742C8.73134 26.0424 8.60547 26.1719 8.60547 26.1719L7.14062 27.2969C7.14062 27.2969 6.80263 27.6373 7.14062 27.8633C8.04263 28.4273 9.95944 29.6646 10.5234 29.8906C10.9754 30.2286 11.6523 30.2305 11.6523 30.2305L15.2617 30.457C15.2617 30.457 15.8248 30.4559 16.0508 30.0039C16.2768 29.8919 16.9531 28.7656 16.9531 28.7656C16.9531 28.7656 17.5173 28.4252 16.6133 28.1992C13.4553 27.9732 10.2999 26.5099 9.17188 26.1719C9.08738 26.1154 9.00622 26.0848 8.9375 26.0742Z" fill="#6A0C0B"/>
</svg>
