<svg width="1487" height="1487" viewBox="0 0 1487 1487" fill="none" xmlns="http://www.w3.org/2000/svg">
<path d="M743.624 0.947266C1153.87 0.947266 1486.45 333.52 1486.45 743.769C1486.45 1154.02 1153.87 1486.59 743.624 1486.59C333.375 1486.59 0.80249 1154.02 0.80249 743.769C0.80249 333.52 333.375 0.947266 743.624 0.947266Z" fill="black" fill-opacity="0.45"/>
<path fill-rule="evenodd" clip-rule="evenodd" d="M1026.99 566.335C1026.99 566.335 1090.33 460.692 1032.96 391.871C939.393 279.635 810.165 351.537 810.165 351.537C822.716 337.364 838.414 324.293 867.781 316.004C867.781 316.004 825.103 238.934 722.774 253.587C577.961 274.318 545.116 412.999 545.116 412.999C544.101 391.995 544.985 370.362 551.838 346.737C551.838 346.737 496.436 353.115 463.72 391.536C395.98 471.091 473.706 560.553 473.706 560.553C473.706 560.553 367.751 497.407 429.148 384.626C470.28 309.069 556.031 319.667 556.031 319.667C556.031 319.667 606.322 213.236 720.5 203.699C879.962 190.384 906.173 304.049 906.173 304.049C906.173 304.049 1005.32 284.89 1058.95 377.771C1115.59 475.847 1026.99 566.335 1026.99 566.335ZM674.9 561.127C793.973 539.611 898.111 546.96 976.799 603.53C959 635.484 952.152 679.938 966.699 718.638C945.957 698.32 933.855 671.609 934.655 616.615C878.056 573.223 757.848 557.406 674.9 561.127ZM559.085 608.971C584.814 641.34 599.31 691.62 590.549 741.231C732.408 691.704 849.466 712.918 939.535 764.865C803.425 736.282 672.3 732.027 553.427 787.482C567.491 731.023 570.869 671.893 559.085 608.971ZM693.452 851.208C693.452 851.208 667.081 837.811 633.902 841.625C598.867 845.657 577.099 862.161 577.099 862.161C577.099 862.161 590.408 819.463 640.063 816.989C675.886 815.196 693.452 851.208 693.452 851.208ZM794.425 851.208C794.425 851.208 811.991 815.196 847.815 816.989C897.47 819.463 910.781 862.161 910.781 862.161C910.781 862.161 889.011 845.657 853.972 841.625C820.796 837.811 794.425 851.208 794.425 851.208ZM743.937 979.951C722.344 1005.5 679.989 1014.31 622.787 1011.13C564.643 1004.01 531.568 984.753 549.336 940.898C537.552 1009.11 621.783 976.766 682.684 922.224C706.342 905.584 730.222 908.516 743.937 925.014C757.655 908.516 781.535 905.584 805.194 922.224C866.09 976.766 950.326 1009.11 938.542 940.898C956.312 984.753 923.234 1004.01 865.091 1011.13C807.885 1014.31 765.536 1005.5 743.937 979.951Z" fill="white" fill-opacity="0.9"/>
<path d="M104.983 1068.27C94.2234 1051.03 92.7178 1035.17 100.466 1020.67C108.443 1005.99 124.173 994.148 147.657 985.161L314.601 920.86C329.975 914.847 344.123 910.864 357.047 908.911C370.164 907.187 382.413 908.373 393.791 912.47C405.364 916.794 416.31 925.005 426.627 937.104C442.2 955.365 448.858 973.344 446.6 991.04C444.538 1008.96 437.232 1028.6 424.683 1049.95L334.533 1204.3C321.951 1226.07 307.972 1239.96 292.598 1245.97C277.647 1252.02 262.412 1248.26 246.892 1234.68C234.588 1223.49 226.728 1211.27 223.312 1198.01C220.091 1184.99 222.838 1173.19 231.553 1162.6C237.233 1155.39 242.745 1150.3 248.089 1147.32C253.627 1144.56 258.156 1142.48 261.674 1141.05C264.54 1139.79 266.709 1137.94 268.179 1135.51C270.073 1133.1 269.754 1130.42 267.223 1127.45L212.912 1063.76C210.382 1060.8 207.683 1059.94 204.816 1061.2C202.373 1062.5 200.399 1064.58 198.895 1067.44C196.934 1070.69 194.061 1074.71 190.274 1079.52C186.487 1084.33 180.683 1089.08 172.862 1093.78C161.032 1100.71 149.039 1101.67 136.882 1096.66C124.725 1091.65 114.092 1082.19 104.983 1068.27ZM309.612 1080.06L350.24 1014.66C352.133 1012.26 353.164 1010 353.332 1007.89C353.923 1005.81 353.245 1003.62 351.298 1001.34C349.352 999.06 347.207 997.932 344.864 997.958C342.944 998.018 340.551 998.679 337.684 999.941L266.981 1030.07L309.612 1080.06Z" fill="white" fill-opacity="0.9"/>
<path d="M462.814 1069.01C468.933 1057.66 477.276 1050.39 487.843 1047.23C498.816 1043.94 510.509 1045.64 522.922 1052.33C536.126 1059.44 544.048 1068.14 546.686 1078.43C549.588 1088.85 547.98 1099.74 541.86 1111.1C535.883 1122.19 527.743 1129.39 517.441 1132.7C507.545 1135.88 495.994 1133.92 482.789 1126.8C469.849 1119.83 461.724 1111.19 458.415 1100.89C455.513 1090.47 456.979 1079.84 462.814 1069.01ZM366.022 1343.5C353.61 1336.81 346.216 1328.39 343.842 1318.25C341.468 1308.11 343.056 1297.89 348.606 1287.59L421.612 1152.11C427.732 1140.76 435.608 1133.41 445.24 1130.08C454.872 1126.76 465.894 1128.43 478.307 1135.12C490.719 1141.81 498.184 1150.09 500.7 1159.97C503.481 1169.99 501.953 1180.41 496.119 1191.24L422.685 1327.51C417.135 1337.81 409.209 1344.62 398.906 1347.93C388.868 1351.38 377.906 1349.9 366.022 1343.5Z" fill="white" fill-opacity="0.9"/>
<path d="M595.228 1422.84C572.184 1418.78 552.632 1410.45 536.573 1397.87C520.566 1385 509.104 1368.81 502.185 1349.31C495.267 1329.81 493.918 1308.1 498.139 1284.17C502.36 1260.24 511.056 1240.3 524.227 1224.34C537.399 1208.39 553.708 1197.1 573.154 1190.47C592.895 1183.9 614.436 1182.68 637.775 1186.79C656.093 1190.02 671.855 1194.78 685.064 1201.07C698.567 1207.42 708.63 1215.13 715.252 1224.22C722.17 1233.36 724.612 1243.69 722.58 1255.21C720.131 1269.1 714.658 1279.41 706.16 1286.13C697.715 1292.56 686.845 1294.61 673.55 1292.26C664.687 1290.7 656.058 1287.8 647.664 1283.58C639.565 1279.41 628.721 1276.13 615.13 1273.73C603.904 1271.75 594.137 1271.86 585.83 1274.05C577.523 1276.24 572.536 1282.06 570.869 1291.51C569.149 1301.26 571.739 1309.03 578.639 1314.82C585.591 1320.31 594.68 1324.04 605.907 1326.02C615.066 1327.64 622.903 1328.11 629.42 1327.43C635.937 1326.75 642.159 1326.02 648.085 1325.24C654.011 1324.46 660.519 1324.69 667.609 1325.94C682.677 1328.6 692.974 1334.98 698.502 1345.1C704.376 1354.97 706.115 1366.7 703.718 1380.29C701.686 1391.81 695.578 1401.4 685.395 1409.04C675.264 1416.4 662.344 1421.43 646.634 1424.14C630.976 1426.56 613.841 1426.12 595.228 1422.84Z" fill="white" fill-opacity="0.9"/>
<path d="M816.803 1438.24C803.972 1441.34 792.85 1440.02 783.436 1434.27C774.243 1428.16 768.273 1419.42 765.525 1408.04L704.326 1154.78C701.367 1142.53 702.511 1131.3 707.757 1121.08C713.296 1110.79 722.918 1103.99 736.623 1100.68C750.037 1097.44 761.119 1099.24 769.87 1106.07C778.912 1112.84 784.948 1122.49 787.978 1135.03L819.581 1265.82L827.454 1263.91C823.438 1247.29 823.183 1233.47 826.69 1222.43C830.488 1211.33 836.56 1202.61 844.905 1196.27C853.471 1189.57 862.711 1185.03 872.626 1182.63C890.122 1178.4 904.447 1179.57 915.601 1186.14C926.976 1192.34 935.994 1202.19 942.654 1215.71C949.606 1229.15 955.126 1244.33 959.213 1261.24L982.043 1355.72C984.932 1367.68 983.356 1378.4 977.315 1387.88C971.494 1397.01 962.169 1403.12 949.338 1406.22C936.216 1409.39 924.983 1408.25 915.64 1402.79C906.226 1397.04 900.074 1388.18 897.185 1376.23L878.477 1298.81C875.94 1288.31 871.926 1280.64 866.434 1275.79C860.943 1270.95 854.26 1269.47 846.387 1271.38C838.513 1273.28 833.31 1277.93 830.778 1285.33C828.246 1292.74 828.177 1301.39 830.573 1311.31L849.07 1387.86C851.818 1399.23 850.353 1409.77 844.673 1419.47C839.215 1428.82 829.925 1435.07 816.803 1438.24Z" fill="white" fill-opacity="0.9"/>
<path d="M1003.16 1278.79C988.763 1259.96 979.795 1240.57 976.252 1220.63C972.947 1200.5 975.11 1181.09 982.739 1162.42C990.607 1143.57 1004.19 1126.77 1023.5 1112.01C1038.51 1100.53 1054.08 1092.98 1070.18 1089.35C1086.53 1085.54 1101.71 1085.64 1115.73 1089.65C1129.56 1093.43 1140.67 1100.8 1149.05 1111.76C1157.8 1123.2 1160.66 1133.85 1157.63 1143.72C1154.6 1153.59 1146.53 1163.53 1133.42 1173.55L1058.34 1230.94C1063.08 1237.14 1069.38 1240.44 1077.24 1240.85C1085.34 1241.08 1095.23 1236.73 1106.91 1227.8C1112.87 1223.25 1117.9 1218.46 1121.99 1213.44C1126.32 1208.24 1130.75 1203.16 1135.26 1198.2C1139.83 1192.82 1145.46 1187.58 1152.13 1182.47C1161.66 1175.19 1172.17 1172.63 1183.65 1174.8C1194.95 1176.74 1205.15 1183.67 1214.26 1195.59C1225.01 1209.65 1226.12 1226.17 1217.6 1245.15C1209.31 1263.94 1193.49 1282.27 1170.13 1300.12C1153.68 1312.7 1135.73 1321.32 1116.27 1326C1097.05 1330.49 1077.63 1329.29 1058.01 1322.39C1038.2 1315.25 1019.92 1300.72 1003.16 1278.79ZM1107.24 1174.87C1110.81 1172.14 1110.73 1169.56 1106.99 1167.14C1103.48 1164.53 1097.98 1163.26 1090.48 1163.33C1082.98 1163.4 1074.7 1166.89 1065.65 1173.82C1055.16 1181.83 1049.03 1190.11 1047.24 1198.64C1045.7 1207 1046.75 1213.56 1050.39 1218.33L1107.24 1174.87Z" fill="white" fill-opacity="0.9"/>
<path d="M1353.52 1122.75C1346.57 1133.26 1337.61 1139.75 1326.64 1142.2C1315.58 1144.25 1305.05 1141.96 1295.04 1135.34L1211.31 1080.02C1208.51 1087.52 1203.75 1092.83 1197.02 1095.93C1190.3 1099.04 1182.6 1100.07 1173.95 1099.02C1165.45 1097.73 1157.33 1094.52 1149.57 1089.39C1141.81 1084.26 1135.75 1077.92 1131.39 1070.37C1126.79 1062.65 1124.47 1055 1124.44 1047.43C1124.57 1039.61 1127.79 1033.11 1134.09 1027.92C1116.4 1014.43 1101.99 1000.6 1090.86 986.413C1079.49 972.065 1072.89 957.282 1071.08 942.062C1069.44 926.593 1073.91 910.849 1084.49 894.83C1093.59 881.063 1103.75 871.952 1114.96 867.496C1125.92 862.875 1136.61 861.666 1147.02 863.87C1157.6 865.824 1166.73 870.238 1174.41 877.112C1181.84 883.821 1186.87 891.996 1189.49 901.637C1191.86 911.113 1189.48 921.232 1182.37 931.995C1177.41 939.504 1171.77 944.769 1165.46 947.79C1159.15 950.812 1152.71 952.669 1146.14 953.361C1139.49 953.638 1133.33 953.705 1127.67 953.562C1113.52 953.204 1105.93 957.354 1104.88 966.012C1104.48 970.423 1106.2 974.077 1110.04 976.974C1113.63 979.705 1118.84 981.347 1125.66 981.902L1145.39 983.069C1155.21 983.445 1162.82 981.999 1168.21 978.732C1173.36 975.299 1177.83 969.623 1181.62 961.703L1190.9 941.945C1196.76 929.274 1206.09 921.955 1218.89 919.988C1231.7 918.022 1243.98 920.925 1255.75 928.698C1268.01 936.802 1275.42 947.089 1277.96 959.56C1280.43 971.614 1277.48 982.61 1269.11 992.546L1256.82 1007.07L1342.42 1063.64C1352.43 1070.25 1358.67 1079.04 1361.12 1090.02C1363.33 1100.83 1360.8 1111.74 1353.52 1122.75Z" fill="white" fill-opacity="0.9"/>
<path d="M743.624 0.947266C1153.87 0.947266 1486.45 333.52 1486.45 743.769C1486.45 1154.02 1153.87 1486.59 743.624 1486.59C333.375 1486.59 0.80249 1154.02 0.80249 743.769C0.80249 333.52 333.375 0.947266 743.624 0.947266Z" stroke="black"/>
<path fill-rule="evenodd" clip-rule="evenodd" d="M1026.99 566.335C1026.99 566.335 1090.33 460.692 1032.96 391.871C939.393 279.635 810.165 351.537 810.165 351.537C822.716 337.364 838.414 324.293 867.781 316.004C867.781 316.004 825.103 238.934 722.774 253.587C577.961 274.318 545.116 412.999 545.116 412.999C544.101 391.995 544.985 370.362 551.838 346.737C551.838 346.737 496.436 353.115 463.72 391.536C395.98 471.091 473.706 560.553 473.706 560.553C473.706 560.553 367.751 497.407 429.148 384.626C470.28 309.069 556.031 319.667 556.031 319.667C556.031 319.667 606.322 213.236 720.5 203.699C879.962 190.384 906.173 304.049 906.173 304.049C906.173 304.049 1005.32 284.89 1058.95 377.771C1115.59 475.847 1026.99 566.335 1026.99 566.335ZM674.9 561.127C793.973 539.611 898.111 546.96 976.799 603.53C959 635.484 952.152 679.938 966.699 718.638C945.957 698.32 933.855 671.609 934.655 616.615C878.056 573.223 757.848 557.406 674.9 561.127ZM559.085 608.971C584.814 641.34 599.31 691.62 590.549 741.231C732.408 691.704 849.466 712.918 939.535 764.865C803.425 736.282 672.3 732.027 553.427 787.482C567.491 731.023 570.869 671.893 559.085 608.971ZM693.452 851.208C693.452 851.208 667.081 837.811 633.902 841.625C598.867 845.657 577.099 862.161 577.099 862.161C577.099 862.161 590.408 819.463 640.063 816.989C675.886 815.196 693.452 851.208 693.452 851.208ZM794.425 851.208C794.425 851.208 811.991 815.196 847.815 816.989C897.47 819.463 910.781 862.161 910.781 862.161C910.781 862.161 889.011 845.657 853.972 841.625C820.796 837.811 794.425 851.208 794.425 851.208ZM743.937 979.951C722.344 1005.5 679.989 1014.31 622.787 1011.13C564.643 1004.01 531.568 984.753 549.336 940.898C537.552 1009.11 621.783 976.766 682.684 922.224C706.342 905.584 730.222 908.516 743.937 925.014C757.655 908.516 781.535 905.584 805.194 922.224C866.09 976.766 950.326 1009.11 938.542 940.898C956.312 984.753 923.234 1004.01 865.091 1011.13C807.885 1014.31 765.536 1005.5 743.937 979.951Z" stroke="black"/>
<path d="M104.983 1068.27C94.2234 1051.03 92.7178 1035.17 100.466 1020.67C108.443 1005.99 124.173 994.148 147.657 985.161L314.601 920.86C329.975 914.847 344.123 910.864 357.047 908.911C370.164 907.187 382.413 908.373 393.791 912.47C405.364 916.794 416.31 925.005 426.627 937.104C442.2 955.365 448.858 973.344 446.6 991.04C444.538 1008.96 437.232 1028.6 424.683 1049.95L334.533 1204.3C321.951 1226.07 307.972 1239.96 292.598 1245.97C277.647 1252.02 262.412 1248.26 246.892 1234.68C234.588 1223.49 226.728 1211.27 223.312 1198.01C220.091 1184.99 222.838 1173.19 231.553 1162.6C237.233 1155.39 242.745 1150.3 248.089 1147.32C253.627 1144.56 258.156 1142.48 261.674 1141.05C264.54 1139.79 266.709 1137.94 268.179 1135.51C270.073 1133.1 269.754 1130.42 267.223 1127.45L212.912 1063.76C210.382 1060.8 207.683 1059.94 204.816 1061.2C202.373 1062.5 200.399 1064.58 198.895 1067.44C196.934 1070.69 194.061 1074.71 190.274 1079.52C186.487 1084.33 180.683 1089.08 172.862 1093.78C161.032 1100.71 149.039 1101.67 136.882 1096.66C124.725 1091.65 114.092 1082.19 104.983 1068.27ZM309.612 1080.06L350.24 1014.66C352.133 1012.26 353.164 1010 353.332 1007.89C353.923 1005.81 353.245 1003.62 351.298 1001.34C349.352 999.06 347.207 997.932 344.864 997.958C342.944 998.018 340.551 998.679 337.684 999.941L266.981 1030.07L309.612 1080.06Z" stroke="black"/>
<path d="M462.814 1069.01C468.933 1057.66 477.276 1050.39 487.843 1047.23C498.816 1043.94 510.509 1045.64 522.922 1052.33C536.126 1059.44 544.048 1068.14 546.686 1078.43C549.588 1088.85 547.98 1099.74 541.86 1111.1C535.883 1122.19 527.743 1129.39 517.441 1132.7C507.545 1135.88 495.994 1133.92 482.789 1126.8C469.849 1119.83 461.724 1111.19 458.415 1100.89C455.513 1090.47 456.979 1079.84 462.814 1069.01ZM366.022 1343.5C353.61 1336.81 346.216 1328.39 343.842 1318.25C341.468 1308.11 343.056 1297.89 348.606 1287.59L421.612 1152.11C427.732 1140.76 435.608 1133.41 445.24 1130.08C454.872 1126.76 465.894 1128.43 478.307 1135.12C490.719 1141.81 498.184 1150.09 500.7 1159.97C503.481 1169.99 501.953 1180.41 496.119 1191.24L422.685 1327.51C417.135 1337.81 409.209 1344.62 398.906 1347.93C388.868 1351.38 377.906 1349.9 366.022 1343.5Z" stroke="black"/>
<path d="M595.228 1422.84C572.184 1418.78 552.632 1410.45 536.573 1397.87C520.566 1385 509.104 1368.81 502.185 1349.31C495.267 1329.81 493.918 1308.1 498.139 1284.17C502.36 1260.24 511.056 1240.3 524.227 1224.34C537.399 1208.39 553.708 1197.1 573.154 1190.47C592.895 1183.9 614.436 1182.68 637.775 1186.79C656.093 1190.02 671.855 1194.78 685.064 1201.07C698.567 1207.42 708.63 1215.13 715.252 1224.22C722.17 1233.36 724.612 1243.69 722.58 1255.21C720.131 1269.1 714.658 1279.41 706.16 1286.13C697.715 1292.56 686.845 1294.61 673.55 1292.26C664.687 1290.7 656.058 1287.8 647.664 1283.58C639.565 1279.41 628.721 1276.13 615.13 1273.73C603.904 1271.75 594.137 1271.86 585.83 1274.05C577.523 1276.24 572.536 1282.06 570.869 1291.51C569.149 1301.26 571.739 1309.03 578.639 1314.82C585.591 1320.31 594.68 1324.04 605.907 1326.02C615.066 1327.64 622.903 1328.11 629.42 1327.43C635.937 1326.75 642.159 1326.02 648.085 1325.24C654.011 1324.46 660.519 1324.69 667.609 1325.94C682.677 1328.6 692.974 1334.98 698.502 1345.1C704.376 1354.97 706.115 1366.7 703.718 1380.29C701.686 1391.81 695.578 1401.4 685.395 1409.04C675.264 1416.4 662.344 1421.43 646.634 1424.14C630.976 1426.56 613.841 1426.12 595.228 1422.84Z" stroke="black"/>
<path d="M816.803 1438.24C803.972 1441.34 792.85 1440.02 783.436 1434.27C774.243 1428.16 768.273 1419.42 765.525 1408.04L704.326 1154.78C701.367 1142.53 702.511 1131.3 707.757 1121.08C713.296 1110.79 722.918 1103.99 736.623 1100.68C750.037 1097.44 761.119 1099.24 769.87 1106.07C778.912 1112.84 784.948 1122.49 787.978 1135.03L819.581 1265.82L827.454 1263.91C823.438 1247.29 823.183 1233.47 826.69 1222.43C830.488 1211.33 836.56 1202.61 844.905 1196.27C853.471 1189.57 862.711 1185.03 872.626 1182.63C890.122 1178.4 904.447 1179.57 915.601 1186.14C926.976 1192.34 935.994 1202.19 942.654 1215.71C949.606 1229.15 955.126 1244.33 959.213 1261.24L982.043 1355.72C984.932 1367.68 983.356 1378.4 977.315 1387.88C971.494 1397.01 962.169 1403.12 949.338 1406.22C936.216 1409.39 924.983 1408.25 915.64 1402.79C906.226 1397.04 900.074 1388.18 897.185 1376.23L878.477 1298.81C875.94 1288.31 871.926 1280.64 866.434 1275.79C860.943 1270.95 854.26 1269.47 846.387 1271.38C838.513 1273.28 833.31 1277.93 830.778 1285.33C828.246 1292.74 828.177 1301.39 830.573 1311.31L849.07 1387.86C851.818 1399.23 850.353 1409.77 844.673 1419.47C839.215 1428.82 829.925 1435.07 816.803 1438.24Z" stroke="black"/>
<path d="M1003.16 1278.79C988.763 1259.96 979.795 1240.57 976.252 1220.63C972.947 1200.5 975.11 1181.09 982.739 1162.42C990.607 1143.57 1004.19 1126.77 1023.5 1112.01C1038.51 1100.53 1054.08 1092.98 1070.18 1089.35C1086.53 1085.54 1101.71 1085.64 1115.73 1089.65C1129.56 1093.43 1140.67 1100.8 1149.05 1111.76C1157.8 1123.2 1160.66 1133.85 1157.63 1143.72C1154.6 1153.59 1146.53 1163.53 1133.42 1173.55L1058.34 1230.94C1063.08 1237.14 1069.38 1240.44 1077.24 1240.85C1085.34 1241.08 1095.23 1236.73 1106.91 1227.8C1112.87 1223.25 1117.9 1218.46 1121.99 1213.44C1126.32 1208.24 1130.75 1203.16 1135.26 1198.2C1139.83 1192.82 1145.46 1187.58 1152.13 1182.47C1161.66 1175.19 1172.17 1172.63 1183.65 1174.8C1194.95 1176.74 1205.15 1183.67 1214.26 1195.59C1225.01 1209.65 1226.12 1226.17 1217.6 1245.15C1209.31 1263.94 1193.49 1282.27 1170.13 1300.12C1153.68 1312.7 1135.73 1321.32 1116.27 1326C1097.05 1330.49 1077.63 1329.29 1058.01 1322.39C1038.2 1315.25 1019.92 1300.72 1003.16 1278.79ZM1107.24 1174.87C1110.81 1172.14 1110.73 1169.56 1106.99 1167.14C1103.48 1164.53 1097.98 1163.26 1090.48 1163.33C1082.98 1163.4 1074.7 1166.89 1065.65 1173.82C1055.16 1181.83 1049.03 1190.11 1047.24 1198.64C1045.7 1207 1046.75 1213.56 1050.39 1218.33L1107.24 1174.87Z" stroke="black"/>
<path d="M1353.52 1122.75C1346.57 1133.26 1337.61 1139.75 1326.64 1142.2C1315.58 1144.25 1305.05 1141.96 1295.04 1135.34L1211.31 1080.02C1208.51 1087.52 1203.75 1092.83 1197.02 1095.93C1190.3 1099.04 1182.6 1100.07 1173.95 1099.02C1165.45 1097.73 1157.33 1094.52 1149.57 1089.39C1141.81 1084.26 1135.75 1077.92 1131.39 1070.37C1126.79 1062.65 1124.47 1055 1124.44 1047.43C1124.57 1039.61 1127.79 1033.11 1134.09 1027.92C1116.4 1014.43 1101.99 1000.6 1090.86 986.413C1079.49 972.065 1072.89 957.282 1071.08 942.062C1069.44 926.593 1073.91 910.849 1084.49 894.83C1093.59 881.063 1103.75 871.952 1114.96 867.496C1125.92 862.875 1136.61 861.666 1147.02 863.87C1157.6 865.824 1166.73 870.238 1174.41 877.112C1181.84 883.821 1186.87 891.996 1189.49 901.637C1191.86 911.113 1189.48 921.232 1182.37 931.995C1177.41 939.504 1171.77 944.769 1165.46 947.79C1159.15 950.812 1152.71 952.669 1146.14 953.361C1139.49 953.638 1133.33 953.705 1127.67 953.562C1113.52 953.204 1105.93 957.354 1104.88 966.012C1104.48 970.423 1106.2 974.077 1110.04 976.974C1113.63 979.705 1118.84 981.347 1125.66 981.902L1145.39 983.069C1155.21 983.445 1162.82 981.999 1168.21 978.732C1173.36 975.299 1177.83 969.623 1181.62 961.703L1190.9 941.945C1196.76 929.274 1206.09 921.955 1218.89 919.988C1231.7 918.022 1243.98 920.925 1255.75 928.698C1268.01 936.802 1275.42 947.089 1277.96 959.56C1280.43 971.614 1277.48 982.61 1269.11 992.546L1256.82 1007.07L1342.42 1063.64C1352.43 1070.25 1358.67 1079.04 1361.12 1090.02C1363.33 1100.83 1360.8 1111.74 1353.52 1122.75Z" stroke="black"/>
</svg>
